# xmcd
#
# Track frame offsets: 
#        150
#        12807
#        28430
#        51880
#        62977
#        71882
#        82447
#        87237
#        93162
#        103047
#        127117
#        132442
#        140015
#        150885
#        162135
#        171872
#        177490
#        181712
#        190377
#
# Disc length: 2725 seconds
#
# Revision: 0
# Processed by: cddbd v1.5.2PL0 Copyright (c) Steve Scherf et al.
# Submitted via: ExactAudioCopy v1.0b1
#
DISCID=120aa313
DTITLE=Timothy Dewitt - Passions of the Soul - Music of the Baroque fo
DTITLE=r Trumpet and Organ
DYEAR=1998
DGENRE=Baroque
TTITLE0=Voluntary in C
TTITLE1=Musique heroiques (Douze Marches) - La Majeste
TTITLE2=Musique heroiques (Douze Marches) - La Grace
TTITLE3=Musique heroiques (Douze Marches) - La Vaillance
TTITLE4=March in G
TTITLE5=Sonata No.2 - Grave-Allegro
TTITLE6=Sonata No.2 - Grave
TTITLE7=Sonata No.2 - Allegro
TTITLE8=Prelude to Te Deum
TTITLE9=Voluntary in C
TTITLE10=Sonata a 7 con due Trombe - Grave
TTITLE11=Sonata a 7 con due Trombe - Allegro
TTITLE12=Sonata a 7 con due Trombe - Adagio
TTITLE13=Sonata a 7 con due Trombe - Allegro
TTITLE14=Sinfonia con tromba - Allegro
TTITLE15=Sinfonia con tromba - Adagio
TTITLE16=Sinfonia con tromba - Allegro
TTITLE17=Sinfonia con tromba - Allegro non troppo
TTITLE18=Voluntary in D
EXTD=
EXTT0=
EXTT1=
EXTT2=
EXTT3=
EXTT4=
EXTT5=
EXTT6=
EXTT7=
EXTT8=
EXTT9=
EXTT10=
EXTT11=
EXTT12=
EXTT13=
EXTT14=
EXTT15=
EXTT16=
EXTT17=
EXTT18=
PLAYORDER=
